<svg width="512" height="512" viewBox="0 0 64 64" fill="none" xmlns="http://www.w3.org/2000/svg">
  <defs>
    <linearGradient id="grad" x1="4" y1="4" x2="60" y2="60" gradientUnits="userSpaceOnUse">
      <stop offset="0%" stop-color="#60a5fa"/>
      <stop offset="50%" stop-color="#818cf8"/>
      <stop offset="100%" stop-color="#c084fc"/>
    </linearGradient>
    <linearGradient id="shine" x1="8" y1="4" x2="32" y2="36" gradientUnits="userSpaceOnUse">
      <stop offset="0%" stop-color="white" stop-opacity="0.22"/>
      <stop offset="100%" stop-color="white" stop-opacity="0"/>
    </linearGradient>
  </defs>

  <!-- Hexagon body -->
  <path d="M32 3L60 19V45L32 61L4 45V19L32 3Z" fill="url(#grad)"/>
  <!-- Inner shine -->
  <path d="M32 3L60 19V45L32 61L4 45V19L32 3Z" fill="url(#shine)"/>
  <!-- Border -->
  <path d="M32 3L60 19V45L32 61L4 45V19L32 3Z" stroke="white" stroke-opacity="0.12" stroke-width="1" fill="none"/>

  <!-- Connection lines -->
  <line x1="32" y1="21" x2="19" y2="42" stroke="white" stroke-width="2" stroke-opacity="0.35" stroke-linecap="round"/>
  <line x1="32" y1="21" x2="45" y2="42" stroke="white" stroke-width="2" stroke-opacity="0.35" stroke-linecap="round"/>
  <line x1="19" y1="42" x2="45" y2="42" stroke="white" stroke-width="2" stroke-opacity="0.35" stroke-linecap="round"/>

  <!-- Pod shadows -->
  <circle cx="32" cy="21" r="8" fill="black" fill-opacity="0.15"/>
  <circle cx="19" cy="42" r="8" fill="black" fill-opacity="0.15"/>
  <circle cx="45" cy="42" r="8" fill="black" fill-opacity="0.15"/>

  <!-- Pod circles -->
  <circle cx="32" cy="21" r="7.5" fill="white" fill-opacity="0.96"/>
  <circle cx="19" cy="42" r="7.5" fill="white" fill-opacity="0.96"/>
  <circle cx="45" cy="42" r="7.5" fill="white" fill-opacity="0.96"/>

  <!-- Pod cores -->
  <circle cx="32" cy="21" r="3.2" fill="#3b82f6"/>
  <circle cx="19" cy="42" r="3.2" fill="#818cf8"/>
  <circle cx="45" cy="42" r="3.2" fill="#a855f7"/>

  <!-- Core highlights -->
  <circle cx="30.8" cy="19.8" r="1.2" fill="white" fill-opacity="0.6"/>
  <circle cx="17.8" cy="40.8" r="1.2" fill="white" fill-opacity="0.6"/>
  <circle cx="43.8" cy="40.8" r="1.2" fill="white" fill-opacity="0.6"/>
</svg>
